<svg xmlns="http://www.w3.org/2000/svg" viewBox="0 0 286.06 22" width="300" height="23">
    <g id="box">
        <rect id="BOX-2" data-name="BOX" x="14.88" width="244" height="22" style="fill:#fb6942"/>
        <g id="_" data-name="&lt;" style="isolation:isolate">
            <g style="isolation:isolate">
                <path d="M14.68,23.28a.45.45,0,0,1-.18,0l-.22-.12L5.8,17.35a2.28,2.28,0,0,1-.5-.46.85.85,0,0,1-.18-.55v-.73A.89.89,0,0,1,5.3,15a2.28,2.28,0,0,1,.5-.46L14.28,8.8l.22-.09a.49.49,0,0,1,.18-.05.48.48,0,0,1,.35.13.42.42,0,0,1,.14.34v2.54a.75.75,0,0,1-.21.58,2.05,2.05,0,0,1-.45.34L9.38,16l5.13,3.39a2.89,2.89,0,0,1,.45.33.74.74,0,0,1,.21.57v2.54a.48.48,0,0,1-.49.49Z" transform="translate(-5.12 -5)" style="fill:#fb6942"/>
            </g>
        </g>
        <g id="_2" data-name="/&gt;" style="isolation:isolate">
            <g style="isolation:isolate">
                <path d="M268.2,26.2a.51.51,0,0,1-.37-.15.46.46,0,0,1-.15-.34.44.44,0,0,1,.07-.24l8-19.19a1.5,1.5,0,0,1,.28-.37.77.77,0,0,1,.57-.19h2.12a.47.47,0,0,1,.35.15.51.51,0,0,1,.14.34.86.86,0,0,1-.05.24l-8,19.19a1.29,1.29,0,0,1-.27.36.77.77,0,0,1-.58.2Z" transform="translate(-5.12 -5)" style="fill:#fb6942"/>
                <path d="M281.6,23.28a.42.42,0,0,1-.33-.14.45.45,0,0,1-.15-.35V20.25a.74.74,0,0,1,.22-.57,3.37,3.37,0,0,1,.44-.33L286.89,16l-5.11-3.37a2.26,2.26,0,0,1-.44-.34.75.75,0,0,1-.22-.58V9.13a.43.43,0,0,1,.15-.34.44.44,0,0,1,.33-.13.58.58,0,0,1,.2.05l.2.09,8.5,5.77A2.15,2.15,0,0,1,291,15a1,1,0,0,1,.17.58v.73a.9.9,0,0,1-.17.55,2.15,2.15,0,0,1-.51.46L282,23.12l-.2.12A.54.54,0,0,1,281.6,23.28Z" transform="translate(-5.12 -5)" style="fill:#fb6942"/>
            </g>
        </g>
    </g>
    <g id="name">
        <path d="M33.91,24.46a9,9,0,0,1-3.73-.71,5.52,5.52,0,0,1-2.43-2.09,7,7,0,0,1-.95-3.43c0-.63,0-1.3,0-2s0-1.41,0-2.06a7,7,0,0,1,1-3.41A5.52,5.52,0,0,1,30.2,8.62a8.83,8.83,0,0,1,3.71-.72,10,10,0,0,1,2.8.38A7.12,7.12,0,0,1,39,9.39,5,5,0,0,1,41,13.45a.4.4,0,0,1-.13.34.52.52,0,0,1-.36.14h-3.1A.68.68,0,0,1,37,13.8a1,1,0,0,1-.28-.47,2.65,2.65,0,0,0-1-1.67,3.35,3.35,0,0,0-1.79-.45,2.78,2.78,0,0,0-2,.71,3.27,3.27,0,0,0-.8,2.33c0,1.26,0,2.55,0,3.86a3.32,3.32,0,0,0,.8,2.34,2.77,2.77,0,0,0,2,.7,3.3,3.3,0,0,0,1.8-.46,2.59,2.59,0,0,0,1-1.66.85.85,0,0,1,.27-.47.8.8,0,0,1,.47-.12h3.1a.52.52,0,0,1,.36.13.42.42,0,0,1,.13.35,5.12,5.12,0,0,1-.57,2.31A5.23,5.23,0,0,1,39,23a7.1,7.1,0,0,1-2.26,1.1A9.62,9.62,0,0,1,33.91,24.46Z" transform="translate(-5.12 -5)" style="fill:#fff"/>
        <path d="M50,24.46a9.05,9.05,0,0,1-3.68-.69,5.35,5.35,0,0,1-2.44-2.08,7.16,7.16,0,0,1-1-3.48c0-.66,0-1.33,0-2s0-1.33,0-2a7.19,7.19,0,0,1,1-3.49,5.48,5.48,0,0,1,2.46-2.12,9.64,9.64,0,0,1,7.31,0,5.59,5.59,0,0,1,2.46,2.12,6.88,6.88,0,0,1,1,3.49c0,.66,0,1.32,0,2s0,1.33,0,2a6.75,6.75,0,0,1-1,3.48,5.42,5.42,0,0,1-2.45,2.08A9.05,9.05,0,0,1,50,24.46Zm0-3.31a2.74,2.74,0,0,0,2-.74,3.26,3.26,0,0,0,.81-2.34c0-.68.05-1.31.05-1.91s0-1.22-.05-1.86a4.12,4.12,0,0,0-.4-1.76,2.21,2.21,0,0,0-1-1,3.18,3.18,0,0,0-2.82,0,2.23,2.23,0,0,0-1,1,4,4,0,0,0-.42,1.76c0,.64,0,1.26,0,1.86s0,1.23,0,1.91a3.35,3.35,0,0,0,.84,2.34A2.71,2.71,0,0,0,50,21.15Z" transform="translate(-5.12 -5)" style="fill:#fff"/>
        <path d="M60.4,24.23a.5.5,0,0,1-.41-.17.55.55,0,0,1-.16-.4V8.71a.55.55,0,0,1,.57-.58h6.26A7.32,7.32,0,0,1,71.35,9.5a4.69,4.69,0,0,1,1.7,3.88,4.75,4.75,0,0,1-.78,2.76,4.86,4.86,0,0,1-2.07,1.7l3.15,5.66a.5.5,0,0,1,.07.25.52.52,0,0,1-.48.48H69.88a.85.85,0,0,1-.65-.22,2.31,2.31,0,0,1-.3-.4l-2.62-5.06H64v5.11a.6.6,0,0,1-.6.57ZM64,15.29h2.64a2.24,2.24,0,0,0,1.62-.53,1.92,1.92,0,0,0,.54-1.43,2.05,2.05,0,0,0-.51-1.45,2.18,2.18,0,0,0-1.65-.55H64Z" transform="translate(-5.12 -5)" style="fill:#fff"/>
        <path d="M76.29,24.23a.53.53,0,0,1-.41-.17.55.55,0,0,1-.16-.4V8.71a.57.57,0,0,1,.16-.42.6.6,0,0,1,.41-.16H87a.6.6,0,0,1,.41.16.57.57,0,0,1,.16.42v2.16a.53.53,0,0,1-.16.41.56.56,0,0,1-.41.16H79.7v3.11h6.83a.53.53,0,0,1,.41.17.6.6,0,0,1,.16.43v2a.55.55,0,0,1-.16.4.5.5,0,0,1-.41.17H79.7v3.2h7.52a.53.53,0,0,1,.41.16.57.57,0,0,1,.16.42v2.16a.55.55,0,0,1-.16.4.5.5,0,0,1-.41.17Z" transform="translate(-5.12 -5)" style="fill:#fff"/>
        <path d="M101.92,24.46a9,9,0,0,1-3.73-.71,5.52,5.52,0,0,1-2.43-2.09,7,7,0,0,1-1-3.43c0-.63,0-1.3,0-2s0-1.41,0-2.06a7,7,0,0,1,1-3.41,5.52,5.52,0,0,1,2.44-2.11,8.83,8.83,0,0,1,3.71-.72,10,10,0,0,1,2.8.38A7.12,7.12,0,0,1,107,9.39a5,5,0,0,1,2.07,4.06.4.4,0,0,1-.13.34.52.52,0,0,1-.36.14h-3.1a.68.68,0,0,1-.46-.13,1,1,0,0,1-.28-.47,2.65,2.65,0,0,0-1-1.67,3.35,3.35,0,0,0-1.79-.45,2.78,2.78,0,0,0-2,.71,3.27,3.27,0,0,0-.8,2.33c0,1.26,0,2.55,0,3.86a3.32,3.32,0,0,0,.8,2.34,2.77,2.77,0,0,0,2,.7,3.3,3.3,0,0,0,1.8-.46,2.59,2.59,0,0,0,1-1.66.85.85,0,0,1,.27-.47.8.8,0,0,1,.47-.12h3.1a.52.52,0,0,1,.36.13.42.42,0,0,1,.13.35,5.12,5.12,0,0,1-.57,2.31A5.23,5.23,0,0,1,107,23a7.1,7.1,0,0,1-2.26,1.1A9.62,9.62,0,0,1,101.92,24.46Z" transform="translate(-5.12 -5)" style="fill:#fff"/>
        <path d="M118,24.46a9.05,9.05,0,0,1-3.68-.69,5.35,5.35,0,0,1-2.44-2.08,7.06,7.06,0,0,1-1-3.48c0-.66,0-1.33,0-2s0-1.33,0-2a7.08,7.08,0,0,1,1-3.49,5.48,5.48,0,0,1,2.46-2.12,9.64,9.64,0,0,1,7.31,0,5.59,5.59,0,0,1,2.46,2.12,6.88,6.88,0,0,1,1,3.49c0,.66,0,1.32,0,2s0,1.33,0,2a6.75,6.75,0,0,1-1,3.48,5.42,5.42,0,0,1-2.45,2.08A9.05,9.05,0,0,1,118,24.46Zm0-3.31a2.74,2.74,0,0,0,2-.74,3.3,3.3,0,0,0,.82-2.34c0-.68,0-1.31,0-1.91s0-1.22,0-1.86a4.27,4.27,0,0,0-.41-1.76,2.21,2.21,0,0,0-1-1,3.18,3.18,0,0,0-2.82,0,2.23,2.23,0,0,0-1,1,4,4,0,0,0-.42,1.76c0,.64,0,1.26,0,1.86s0,1.23,0,1.91a3.35,3.35,0,0,0,.84,2.34A2.71,2.71,0,0,0,118,21.15Z" transform="translate(-5.12 -5)" style="fill:#fff"/>
        <path d="M128.41,24.23a.5.5,0,0,1-.41-.17.55.55,0,0,1-.16-.4V8.71a.55.55,0,0,1,.57-.58h6a9.07,9.07,0,0,1,3.84.73A5.37,5.37,0,0,1,140.67,11a7,7,0,0,1,.92,3.44c0,.68,0,1.27,0,1.77s0,1.09,0,1.75a7.51,7.51,0,0,1-.91,3.54,4.88,4.88,0,0,1-2.37,2.08,9.33,9.33,0,0,1-3.8.68ZM132,20.92h2.41a3.83,3.83,0,0,0,1.65-.31,2.14,2.14,0,0,0,1-1,4,4,0,0,0,.35-1.74q0-.67.06-1.2c0-.35,0-.71,0-1.06s0-.74-.06-1.17a3.14,3.14,0,0,0-.81-2.29,3.26,3.26,0,0,0-2.29-.73H132Z" transform="translate(-5.12 -5)" style="fill:#fff"/>
        <path d="M144.88,24.23a.5.5,0,0,1-.41-.17.56.56,0,0,1-.17-.4V8.71a.57.57,0,0,1,.17-.42.57.57,0,0,1,.41-.16h10.74a.57.57,0,0,1,.41.16.57.57,0,0,1,.17.42v2.16a.53.53,0,0,1-.17.41.53.53,0,0,1-.41.16h-7.34v3.11h6.83a.57.57,0,0,1,.42.17.6.6,0,0,1,.16.43v2a.55.55,0,0,1-.16.4.54.54,0,0,1-.42.17h-6.83v3.2h7.52a.55.55,0,0,1,.58.58v2.16a.55.55,0,0,1-.16.4.54.54,0,0,1-.42.17Z" transform="translate(-5.12 -5)" style="fill:#fff"/>
        <path d="M169.9,24.46a9.76,9.76,0,0,1-3.81-.65,5.41,5.41,0,0,1-2.3-1.72,3.9,3.9,0,0,1-.83-2.25.46.46,0,0,1,.15-.33.49.49,0,0,1,.35-.15h2.9a.88.88,0,0,1,.5.11,1.46,1.46,0,0,1,.31.3,2.77,2.77,0,0,0,.51.67,2.55,2.55,0,0,0,.89.52,5,5,0,0,0,3.35-.22,1.27,1.27,0,0,0,.67-1.13,1.08,1.08,0,0,0-.36-.85,3.44,3.44,0,0,0-1.19-.59c-.54-.17-1.27-.35-2.17-.54a13.07,13.07,0,0,1-3-.95A4.59,4.59,0,0,1,164,15.14a4.17,4.17,0,0,1-.65-2.38,4.17,4.17,0,0,1,.8-2.51,5.17,5.17,0,0,1,2.21-1.73,9.53,9.53,0,0,1,6.18-.2,6.31,6.31,0,0,1,2,1.1,5.21,5.21,0,0,1,1.25,1.46,3.44,3.44,0,0,1,.45,1.51.53.53,0,0,1-.13.33.43.43,0,0,1-.36.15h-3a1,1,0,0,1-.44-.09.83.83,0,0,1-.32-.3,1.56,1.56,0,0,0-.73-.89,2.78,2.78,0,0,0-1.52-.38,2.93,2.93,0,0,0-1.58.36,1.19,1.19,0,0,0-.56,1.09,1.16,1.16,0,0,0,.31.81,2.45,2.45,0,0,0,1,.6,19.68,19.68,0,0,0,2,.53,14.94,14.94,0,0,1,3.38,1,4.35,4.35,0,0,1,1.9,1.52,4.16,4.16,0,0,1,.61,2.34,4.18,4.18,0,0,1-.9,2.69,5.65,5.65,0,0,1-2.45,1.73A9.7,9.7,0,0,1,169.9,24.46Z" transform="translate(-5.12 -5)" style="fill:#fff"/>
        <path d="M185.75,24.46a9.06,9.06,0,0,1-3.73-.71,5.44,5.44,0,0,1-2.42-2.09,6.89,6.89,0,0,1-1-3.43c0-.63,0-1.3,0-2s0-1.41,0-2.06a7,7,0,0,1,1-3.41,5.41,5.41,0,0,1,2.44-2.11,8.75,8.75,0,0,1,3.7-.72,10,10,0,0,1,2.81.38,7,7,0,0,1,2.25,1.11,5.23,5.23,0,0,1,1.51,1.74,5.06,5.06,0,0,1,.56,2.32.37.37,0,0,1-.13.34.5.5,0,0,1-.35.14h-3.11a.7.7,0,0,1-.46-.13.9.9,0,0,1-.27-.47,2.7,2.7,0,0,0-1.05-1.67,3.31,3.31,0,0,0-1.78-.45,2.76,2.76,0,0,0-2,.71,3.32,3.32,0,0,0-.81,2.33c0,1.26,0,2.55,0,3.86a3.36,3.36,0,0,0,.81,2.34,2.76,2.76,0,0,0,2,.7,3.29,3.29,0,0,0,1.79-.46,2.6,2.6,0,0,0,1-1.66.91.91,0,0,1,.26-.47.82.82,0,0,1,.47-.12h3.11a.49.49,0,0,1,.35.13.39.39,0,0,1,.13.35,5,5,0,0,1-.56,2.31A5.26,5.26,0,0,1,190.81,23a7,7,0,0,1-2.25,1.1A9.69,9.69,0,0,1,185.75,24.46Z" transform="translate(-5.12 -5)" style="fill:#fff"/>
        <path d="M195.87,24.23a.53.53,0,0,1-.41-.16.55.55,0,0,1-.17-.41V8.71a.57.57,0,0,1,.17-.42.57.57,0,0,1,.41-.16h3a.61.61,0,0,1,.42.16.54.54,0,0,1,.18.42v5.54h5.65V8.71a.55.55,0,0,1,.58-.58h3a.6.6,0,0,1,.41.16.57.57,0,0,1,.16.42v15a.55.55,0,0,1-.16.4.53.53,0,0,1-.41.17h-3a.54.54,0,0,1-.42-.17.59.59,0,0,1-.16-.4V17.93h-5.65v5.73a.6.6,0,0,1-.6.57Z" transform="translate(-5.12 -5)" style="fill:#fff"/>
        <path d="M219,24.46a9.05,9.05,0,0,1-3.68-.69,5.35,5.35,0,0,1-2.44-2.08,7.16,7.16,0,0,1-1-3.48c0-.66,0-1.33,0-2s0-1.33,0-2a7.19,7.19,0,0,1,1-3.49,5.48,5.48,0,0,1,2.46-2.12,9.64,9.64,0,0,1,7.31,0,5.59,5.59,0,0,1,2.46,2.12,6.88,6.88,0,0,1,1,3.49c0,.66,0,1.32,0,2s0,1.33,0,2a6.75,6.75,0,0,1-1,3.48,5.42,5.42,0,0,1-2.45,2.08A9.05,9.05,0,0,1,219,24.46Zm0-3.31a2.74,2.74,0,0,0,2-.74,3.26,3.26,0,0,0,.81-2.34c0-.68.05-1.31.05-1.91s0-1.22-.05-1.86a4.12,4.12,0,0,0-.4-1.76,2.21,2.21,0,0,0-1-1,3,3,0,0,0-1.42-.33,2.92,2.92,0,0,0-1.4.33,2.23,2.23,0,0,0-1,1,4,4,0,0,0-.42,1.76c0,.64,0,1.26,0,1.86s0,1.23,0,1.91a3.35,3.35,0,0,0,.84,2.34A2.69,2.69,0,0,0,219,21.15Z" transform="translate(-5.12 -5)" style="fill:#fff"/>
        <path d="M235.38,24.46a9.08,9.08,0,0,1-3.68-.69,5.32,5.32,0,0,1-2.43-2.08,7,7,0,0,1-1-3.48c0-.66,0-1.33,0-2s0-1.33,0-2a7.09,7.09,0,0,1,1-3.49,5.48,5.48,0,0,1,2.46-2.12,9.61,9.61,0,0,1,7.3,0,5.59,5.59,0,0,1,2.46,2.12,6.88,6.88,0,0,1,1,3.49c0,.66,0,1.32,0,2s0,1.33,0,2a6.85,6.85,0,0,1-1,3.48,5.37,5.37,0,0,1-2.45,2.08A9.05,9.05,0,0,1,235.38,24.46Zm0-3.31a2.71,2.71,0,0,0,2-.74,3.22,3.22,0,0,0,.82-2.34c0-.68.05-1.31.05-1.91s0-1.22-.05-1.86a4.12,4.12,0,0,0-.4-1.76,2.26,2.26,0,0,0-1-1,3,3,0,0,0-1.43-.33,3,3,0,0,0-1.4.33,2.33,2.33,0,0,0-1,1,4.11,4.11,0,0,0-.41,1.76q0,1,0,1.86c0,.6,0,1.23,0,1.91a3.26,3.26,0,0,0,.84,2.34A2.69,2.69,0,0,0,235.38,21.15Z" transform="translate(-5.12 -5)" style="fill:#fff"/>
        <path d="M245.76,24.23a.54.54,0,0,1-.42-.17.59.59,0,0,1-.16-.4V8.71a.55.55,0,0,1,.58-.58h3a.55.55,0,0,1,.58.58V20.76h7a.55.55,0,0,1,.41.17.6.6,0,0,1,.16.43v2.3a.55.55,0,0,1-.16.4.52.52,0,0,1-.41.17Z" transform="translate(-5.12 -5)" style="fill:#fff"/>
    </g>
</svg>